<svg xmlns="http://www.w3.org/2000/svg" width="512" height="512" viewBox="0 0 522.47 522.47">
  <path fill="#FFF" d="M325.76 70.51l-17.7-4.85a7.97 7.97 0 0 0-6.71.71 9.28 9.28 0 0 0-4.43 5.57l-106.5 368.59a8.55 8.55 0 0 0 .72 7 9.27 9.27 0 0 0 5.57 4.42l17.7 4.86c2.28.76 4.52.52 6.71-.72a9.3 9.3 0 0 0 4.42-5.56l106.5-368.6a8.6 8.6 0 0 0-.71-7 9.27 9.27 0 0 0-5.57-4.42zm-159.59 71.96c0-2.48-.96-4.67-2.86-6.57l-14.28-14.28c-1.9-1.9-4.09-2.86-6.56-2.86s-4.67.96-6.57 2.86L2.86 254.67A9.02 9.02 0 0 0 0 261.23a9 9 0 0 0 2.86 6.57L135.9 400.84a9 9 0 0 0 6.57 2.86 9 9 0 0 0 6.56-2.86l14.28-14.27a9.03 9.03 0 0 0 2.86-6.57c0-2.47-.96-4.66-2.86-6.56l-112.2-112.2 112.2-112.2a9.02 9.02 0 0 0 2.86-6.57zm353.44 112.19L386.57 121.62a9.03 9.03 0 0 0-6.57-2.86c-2.47 0-4.66.96-6.57 2.86l-14.27 14.27c-1.9 1.9-2.85 4.1-2.85 6.57s.95 4.67 2.85 6.57l112.2 112.2-112.2 112.21a9.02 9.02 0 0 0-2.85 6.57c0 2.47.95 4.66 2.85 6.57l14.27 14.26a9.03 9.03 0 0 0 6.57 2.86 9 9 0 0 0 6.57-2.86L519.6 267.8a9.03 9.03 0 0 0 2.86-6.57 9 9 0 0 0-2.86-6.57z"/>
</svg>